<?xml version="1.0" encoding="UTF-8" standalone="no"?>
<svg
   xmlns:dc="http://purl.org/dc/elements/1.1/"
   xmlns:cc="http://creativecommons.org/ns#"
   xmlns:rdf="http://www.w3.org/1999/02/22-rdf-syntax-ns#"
   xmlns:svg="http://www.w3.org/2000/svg"
   xmlns="http://www.w3.org/2000/svg"
   xmlns:sodipodi="http://sodipodi.sourceforge.net/DTD/sodipodi-0.dtd"
   xmlns:inkscape="http://www.inkscape.org/namespaces/inkscape"
   version="1.1"
   id="Capa_1"
   x="0px"
   y="0px"
   viewBox="0 0 144.924 114.02896"
   xml:space="preserve"
   sodipodi:docname="check.svg"
   inkscape:version="0.92.2 (5c3e80d, 2017-08-06)"
   width="144.924"
   height="114.02895"><metadata
     id="metadata41"><rdf:RDF><cc:Work
         rdf:about=""><dc:format>image/svg+xml</dc:format><dc:type
           rdf:resource="http://purl.org/dc/dcmitype/StillImage" /></cc:Work></rdf:RDF></metadata><defs
     id="defs39" /><sodipodi:namedview
     pagecolor="#ffffff"
     bordercolor="#666666"
     borderopacity="1"
     objecttolerance="10"
     gridtolerance="10"
     guidetolerance="10"
     inkscape:pageopacity="0"
     inkscape:pageshadow="2"
     inkscape:window-width="1600"
     inkscape:window-height="837"
     id="namedview37"
     showgrid="false"
     inkscape:zoom="1.6284398"
     inkscape:cx="-34.081702"
     inkscape:cy="57.014003"
     inkscape:window-x="-4"
     inkscape:window-y="-4"
     inkscape:window-maximized="1"
     inkscape:current-layer="Capa_1" /><g
     id="g4"
     style="fill:#000000;fill-opacity:1"
     transform="translate(0,-15.447048)"><path
       style="fill:#000000;fill-opacity:1"
       d="m 144.924,37.745 c 0,-5.963 -2.321,-11.567 -6.538,-15.784 -8.518,-8.516 -22.25,-8.675 -30.992,-0.518 -0.198,0.161 -0.39,0.334 -0.575,0.518 L 53.194,75.587 38.104,60.497 C 29.401,51.796 15.24,51.796 6.537,60.497 2.321,64.714 0,70.319 0,76.281 0,82.243 2.321,87.847 6.537,92.064 l 30.834,30.834 c 0.013,0.013 0.023,0.028 0.037,0.041 4.217,4.216 9.821,6.537 15.784,6.537 5.218,0 10.161,-1.777 14.14,-5.047 0.551,-0.452 1.082,-0.936 1.594,-1.445 0.016,-0.016 0.034,-0.029 0.05,-0.045 l 69.411,-69.411 c 0.084,-0.084 0.158,-0.176 0.238,-0.263 4.058,-4.185 6.299,-9.676 6.299,-15.52 z M 17.145,71.105 c 2.854,-2.855 7.499,-2.855 10.353,0 l 20.394,20.394 c 0.183,0.183 0.374,0.354 0.57,0.515 1.375,1.121 3.055,1.682 4.734,1.682 1.679,0 3.359,-0.561 4.734,-1.682 0.196,-0.16 0.387,-0.332 0.57,-0.515 l 58.929,-58.93 c 0.001,-0.001 0.003,-0.003 0.004,-0.005 2.855,-2.847 7.496,-2.848 10.348,0.005 1.383,1.383 2.145,3.221 2.145,5.177 0,1.953 -0.759,3.789 -2.139,5.171 -0.001,0.002 -0.003,0.003 -0.005,0.005 L 58.37,112.33 c -1.383,1.383 -3.221,2.145 -5.177,2.145 -1.955,0 -3.793,-0.762 -5.176,-2.145 L 17.145,81.457 C 15.762,80.074 15,78.237 15,76.281 c 0,-1.956 0.762,-3.793 2.145,-5.176 z"
       id="path2"
       inkscape:connector-curvature="0" /></g><g
     id="g6"
     transform="translate(0,-15.447048)" /><g
     id="g8"
     transform="translate(0,-15.447048)" /><g
     id="g10"
     transform="translate(0,-15.447048)" /><g
     id="g12"
     transform="translate(0,-15.447048)" /><g
     id="g14"
     transform="translate(0,-15.447048)" /><g
     id="g16"
     transform="translate(0,-15.447048)" /><g
     id="g18"
     transform="translate(0,-15.447048)" /><g
     id="g20"
     transform="translate(0,-15.447048)" /><g
     id="g22"
     transform="translate(0,-15.447048)" /><g
     id="g24"
     transform="translate(0,-15.447048)" /><g
     id="g26"
     transform="translate(0,-15.447048)" /><g
     id="g28"
     transform="translate(0,-15.447048)" /><g
     id="g30"
     transform="translate(0,-15.447048)" /><g
     id="g32"
     transform="translate(0,-15.447048)" /><g
     id="g34"
     transform="translate(0,-15.447048)" /></svg>