<?xml version="1.0" encoding="UTF-8" standalone="no"?>
<svg
   xmlns:dc="http://purl.org/dc/elements/1.1/"
   xmlns:cc="http://creativecommons.org/ns#"
   xmlns:rdf="http://www.w3.org/1999/02/22-rdf-syntax-ns#"
   xmlns:svg="http://www.w3.org/2000/svg"
   xmlns="http://www.w3.org/2000/svg"
   xmlns:sodipodi="http://sodipodi.sourceforge.net/DTD/sodipodi-0.dtd"
   xmlns:inkscape="http://www.inkscape.org/namespaces/inkscape"
   version="1.1"
   id="Capa_1"
   x="0px"
   y="0px"
   viewBox="0 0 144.924 144.924"
   style="enable-background:new 0 0 144.924 144.924;"
   xml:space="preserve"
   sodipodi:docname="check.svg"
   inkscape:version="0.92.2 (5c3e80d, 2017-08-06)"><metadata
     id="metadata41"><rdf:RDF><cc:Work
         rdf:about=""><dc:format>image/svg+xml</dc:format><dc:type
           rdf:resource="http://purl.org/dc/dcmitype/StillImage" /></cc:Work></rdf:RDF></metadata><defs
     id="defs39" /><sodipodi:namedview
     pagecolor="#ffffff"
     bordercolor="#666666"
     borderopacity="1"
     objecttolerance="10"
     gridtolerance="10"
     guidetolerance="10"
     inkscape:pageopacity="0"
     inkscape:pageshadow="2"
     inkscape:window-width="1600"
     inkscape:window-height="837"
     id="namedview37"
     showgrid="false"
     inkscape:zoom="1.6284398"
     inkscape:cx="72.461998"
     inkscape:cy="72.461998"
     inkscape:window-x="-4"
     inkscape:window-y="-4"
     inkscape:window-maximized="1"
     inkscape:current-layer="Capa_1" /><g
     id="g4"
     style="fill:#000000;fill-opacity:1"><path
       style="fill:#000000;fill-opacity:1"
       d="M144.924,37.745c0-5.963-2.321-11.567-6.538-15.784c-8.518-8.516-22.25-8.675-30.992-0.518   c-0.198,0.161-0.39,0.334-0.575,0.518L53.194,75.587l-15.09-15.09c-8.703-8.701-22.864-8.701-31.567,0   C2.321,64.714,0,70.319,0,76.281c0,5.962,2.321,11.566,6.537,15.783l30.834,30.834c0.013,0.013,0.023,0.028,0.037,0.041   c4.217,4.216,9.821,6.537,15.784,6.537c5.218,0,10.161-1.777,14.14-5.047c0.551-0.452,1.082-0.936,1.594-1.445   c0.016-0.016,0.034-0.029,0.05-0.045l69.411-69.411c0.084-0.084,0.158-0.176,0.238-0.263   C142.683,49.08,144.924,43.589,144.924,37.745z M17.145,71.105c2.854-2.855,7.499-2.855,10.353,0l20.394,20.394   c0.183,0.183,0.374,0.354,0.57,0.515c1.375,1.121,3.055,1.682,4.734,1.682s3.359-0.561,4.734-1.682   c0.196-0.16,0.387-0.332,0.57-0.515l58.929-58.93c0.001-0.001,0.003-0.003,0.004-0.005c2.855-2.847,7.496-2.848,10.348,0.005   c1.383,1.383,2.145,3.221,2.145,5.177c0,1.953-0.759,3.789-2.139,5.171c-0.001,0.002-0.003,0.003-0.005,0.005L58.37,112.33   c-1.383,1.383-3.221,2.145-5.177,2.145c-1.955,0-3.793-0.762-5.176-2.145L17.145,81.457C15.762,80.074,15,78.237,15,76.281   C15,74.325,15.762,72.488,17.145,71.105z"
       id="path2" /></g><g
     id="g6" /><g
     id="g8" /><g
     id="g10" /><g
     id="g12" /><g
     id="g14" /><g
     id="g16" /><g
     id="g18" /><g
     id="g20" /><g
     id="g22" /><g
     id="g24" /><g
     id="g26" /><g
     id="g28" /><g
     id="g30" /><g
     id="g32" /><g
     id="g34" /></svg>