<?xml version="1.0" encoding="UTF-8" standalone="no"?>
<!-- Generator: Adobe Illustrator 19.0.0, SVG Export Plug-In . SVG Version: 6.00 Build 0)  -->

<svg
   xmlns:dc="http://purl.org/dc/elements/1.1/"
   xmlns:cc="http://creativecommons.org/ns#"
   xmlns:rdf="http://www.w3.org/1999/02/22-rdf-syntax-ns#"
   xmlns:svg="http://www.w3.org/2000/svg"
   xmlns="http://www.w3.org/2000/svg"
   xmlns:sodipodi="http://sodipodi.sourceforge.net/DTD/sodipodi-0.dtd"
   xmlns:inkscape="http://www.inkscape.org/namespaces/inkscape"
   version="1.1"
   id="Layer_1"
   x="0px"
   y="0px"
   viewBox="0 0 488.21338 499.52082"
   xml:space="preserve"
   sodipodi:docname="discount_price.svg"
   inkscape:version="0.92.2 (5c3e80d, 2017-08-06)"
   width="488.21338"
   height="499.52081"><metadata
     id="metadata69"><rdf:RDF><cc:Work
         rdf:about=""><dc:format>image/svg+xml</dc:format><dc:type
           rdf:resource="http://purl.org/dc/dcmitype/StillImage" /><dc:title /></cc:Work></rdf:RDF></metadata><defs
     id="defs67" /><sodipodi:namedview
     pagecolor="#ffffff"
     bordercolor="#666666"
     borderopacity="1"
     objecttolerance="10"
     gridtolerance="10"
     guidetolerance="10"
     inkscape:pageopacity="0"
     inkscape:pageshadow="2"
     inkscape:window-width="1600"
     inkscape:window-height="837"
     id="namedview65"
     showgrid="false"
     inkscape:zoom="0.47245261"
     inkscape:cx="-119.95079"
     inkscape:cy="249.7605"
     inkscape:window-x="-4"
     inkscape:window-y="-4"
     inkscape:window-maximized="1"
     inkscape:current-layer="Layer_1" /><g
     id="g34"
     transform="translate(-5.6536167,-1.8775425e-4)" /><g
     id="g36"
     transform="translate(-5.6536167,-1.8775425e-4)" /><g
     id="g38"
     transform="translate(-5.6536167,-1.8775425e-4)" /><g
     id="g40"
     transform="translate(-5.6536167,-1.8775425e-4)" /><g
     id="g42"
     transform="translate(-5.6536167,-1.8775425e-4)" /><g
     id="g44"
     transform="translate(-5.6536167,-1.8775425e-4)" /><g
     id="g46"
     transform="translate(-5.6536167,-1.8775425e-4)" /><g
     id="g48"
     transform="translate(-5.6536167,-1.8775425e-4)" /><g
     id="g50"
     transform="translate(-5.6536167,-1.8775425e-4)" /><g
     id="g52"
     transform="translate(-5.6536167,-1.8775425e-4)" /><g
     id="g54"
     transform="translate(-5.6536167,-1.8775425e-4)" /><g
     id="g56"
     transform="translate(-5.6536167,-1.8775425e-4)" /><g
     id="g58"
     transform="translate(-5.6536167,-1.8775425e-4)" /><g
     id="g60"
     transform="translate(-5.6536167,-1.8775425e-4)" /><g
     id="g62"
     transform="translate(-5.6536167,-1.8775425e-4)" /><g
     id="g844"
     transform="translate(-5.6536167,-1.8775425e-4)"><path
       id="path2"
       d="m 455.467,25.721 -182.4,-10.4 c -8.8,-0.8 -16.8,2.4 -23.2,8.8 l -231.2,216.8 c -12,12 -18.4,38.4 -7.2,50.4 l 199.2,199.2 c 12,12 30.4,12 42.4,0 l 231.2,-231.2 c 6.4,-6.4 8.8,-14.4 8.8,-23.2 l -9.6,-186.4 c -0.8,-15.2 -12.8,-23.2 -28,-24 z"
       style="fill:#025dc9"
       inkscape:connector-curvature="0" /><path
       id="path4"
       d="m 455.467,10.521 -182.4,-10.4 c -8.8,-0.8 -16.8,2.4 -23.2,8.8 l -231.2,232 c -12,12 -12,30.4 0,42.4 l 192.8,192.8 c 12,12 30.4,12 42.4,0 l 231.2,-231.2 c 6.4,-6.4 8.8,-14.4 8.8,-23.2 l -10.4,-183.2 c -0.8,-15.2 -12.8,-27.2 -28,-28 z"
       style="fill:#0093f7"
       inkscape:connector-curvature="0" /><path
       id="path6"
       d="m 211.467,475.321 c 12,12 30.4,12 42.4,0 l 231.2,-231.2 c 6.4,-6.4 8.8,-14.4 8.8,-23.2 l -10.4,-182.4 c -0.8,-15.2 -12.8,-27.2 -28,-28 l -182.4,-10.4 c -8.8,-0.8 -16.8,2.4 -23.2,8.8"
       style="fill:#0078db"
       inkscape:connector-curvature="0" /><path
       id="path8"
       d="m 445.067,98.521 c 0,27.2 -22.4,64 -48.8,64 -27.2,0 -48.8,-36.8 -48.8,-64 0,-27.2 22.4,-48.8 48.8,-48.8 26.4,0 48.8,21.6 48.8,48.8 z"
       style="fill:#025dc9"
       inkscape:connector-curvature="0" /><circle
       id="circle10"
       r="48.799999"
       cy="98.521004"
       cx="395.46701"
       style="fill:#ff5b00" /><path
       id="path12"
       d="m 361.067,64.121 c 19.2,-19.2 50.4,-19.2 69.6,0 19.2,19.2 19.2,50.4 0,69.6"
       style="fill:#dd4400"
       inkscape:connector-curvature="0" /><circle
       id="circle14"
       r="28.799999"
       cy="98.521004"
       cx="395.46701"
       style="fill:#ebf0f2" /><path
       id="path16"
       d="m 416.267,77.721 c 11.2,11.2 11.2,29.6 0,41.6 -11.2,11.2 -29.6,11.2 -41.6,0"
       style="fill:#cadfe5"
       inkscape:connector-curvature="0" /><path
       style="fill:#ebf0f2;fill-opacity:1;stroke:#cadfe5;stroke-width:4.52755117;stroke-miterlimit:4;stroke-dasharray:none;stroke-opacity:1;paint-order:stroke fill markers"
       id="path2467"
       d="m 189.79539,395.69466 c -0.54198,-1.05556 -0.56843,-6.45722 -0.0367,-7.49286 0.2878,-0.5606 1.5389,-0.79281 5.42431,-1.00684 4.56004,-0.2512 5.24014,-0.40738 7.00689,-1.6092 2.75444,-1.87365 4.53126,-4.10331 6.3033,-7.90966 2.94968,-6.33602 3.12205,-8.99134 3.29813,-50.80557 l 0.13562,-32.2028 h -10.99109 c -9.64337,-1e-5 -11.04148,-0.0981 -11.4019,-0.80007 -0.59931,-1.16726 -0.59931,-12.50668 0,-13.67393 0.36035,-0.70191 1.75577,-0.80006 11.37147,-0.80006 h 10.9607 l -1e-5,-9.419 v -9.419 h -10.96069 c -9.61572,0 -11.01108,-0.0981 -11.37147,-0.80007 -0.59931,-1.16724 -0.59931,-12.50667 0,-13.67391 0.36035,-0.7019 1.75577,-0.80007 11.37147,-0.80007 h 10.9607 l -0.005,-50.27708 c -0.006,-61.53493 -0.23676,-71.42312 -1.86325,-79.88979 -0.97919,-5.09718 -4.0139,-9.8175 -7.80402,-12.13873 -1.07131,-0.65617 -2.82286,-0.96269 -6.87217,-1.20279 -4.41853,-0.26202 -5.48062,-0.46501 -5.68173,-1.08595 -0.42117,-1.300398 -0.30938,-6.949938 0.15543,-7.855228 0.36902,-0.71881 3.6957,-0.79942 32.74202,-0.79361 35.55311,0.007 37.39232,0.1296 45.96219,3.06119 10.6789,3.65299 18.81902,10.435308 25.3196,21.096198 3.51204,5.75967 7.30239,14.24486 9.33369,20.8946 2.24962,7.36451 2.97956,10.98472 4.24361,21.04653 1.87618,14.93433 1.44213,32.24253 -1.2022,47.94126 -0.79619,4.72678 -3.10432,13.88886 -4.57893,18.17597 -6.911,20.0924 -18.17364,31.98783 -33.67609,35.56814 -2.37467,0.54844 -6.86892,0.72557 -18.49497,0.72892 l -15.35803,0.005 v 9.419 9.419 h 33.44223 c 30.05347,0 33.48385,0.081 33.85303,0.80006 0.5993,1.16725 0.59931,12.50667 -2e-5,13.67392 -0.36915,0.719 -3.79954,0.80006 -33.85301,0.80006 h -33.44173 l 0.005,26.09317 c 0.006,34.14356 0.36945,44.45098 1.83917,52.05906 0.72818,3.76931 3.1676,8.67668 5.40769,10.87856 2.85267,2.80403 3.97503,3.21487 9.55993,3.49931 4.02448,0.20499 5.26193,0.42734 5.55504,0.99817 0.53458,1.04119 0.51034,6.43909 -0.0337,7.49867 -0.36913,0.71897 -3.75031,0.8002 -33.31153,0.8002 -29.5612,0 -32.94241,-0.0813 -33.31151,-0.80006 z M 258.1363,244.2969 c 5.59085,-1.98704 10.79555,-7.73249 15.27274,-16.8595 4.36491,-8.8981 7.04674,-19.65511 8.11941,-32.56729 0.56955,-6.85596 0.58069,-21.87851 0.0223,-30.03182 -1.97338,-28.81393 -9.98566,-46.68463 -23.39373,-52.17786 -3.08596,-1.2643 -8.53815,-1.82106 -12.32984,-1.25905 -3.31734,0.49167 -9.72359,2.53182 -11.06182,3.52277 l -0.67907,0.50285 v 64.98064 64.98065 l 11.17541,-0.24374 c 6.93079,-0.15117 11.8208,-0.47312 12.87461,-0.84765 z"
       inkscape:connector-curvature="0" /></g></svg>