<?xml version="1.0" encoding="UTF-8" standalone="no"?>
<!-- Generator: Adobe Illustrator 19.0.0, SVG Export Plug-In . SVG Version: 6.00 Build 0)  -->

<svg
   xmlns:dc="http://purl.org/dc/elements/1.1/"
   xmlns:cc="http://creativecommons.org/ns#"
   xmlns:rdf="http://www.w3.org/1999/02/22-rdf-syntax-ns#"
   xmlns:svg="http://www.w3.org/2000/svg"
   xmlns="http://www.w3.org/2000/svg"
   xmlns:sodipodi="http://sodipodi.sourceforge.net/DTD/sodipodi-0.dtd"
   xmlns:inkscape="http://www.inkscape.org/namespaces/inkscape"
   version="1.1"
   id="Layer_1"
   x="0px"
   y="0px"
   viewBox="0 0 488.21338 499.52082"
   xml:space="preserve"
   sodipodi:docname="discount_percent.svg"
   width="488.21338"
   height="499.52081"
   inkscape:version="0.92.2 (5c3e80d, 2017-08-06)"><metadata
     id="metadata69"><rdf:RDF><cc:Work
         rdf:about=""><dc:format>image/svg+xml</dc:format><dc:type
           rdf:resource="http://purl.org/dc/dcmitype/StillImage" /></cc:Work></rdf:RDF></metadata><defs
     id="defs67" /><sodipodi:namedview
     pagecolor="#ffffff"
     bordercolor="#666666"
     borderopacity="1"
     objecttolerance="10"
     gridtolerance="10"
     guidetolerance="10"
     inkscape:pageopacity="0"
     inkscape:pageshadow="2"
     inkscape:window-width="1600"
     inkscape:window-height="837"
     id="namedview65"
     showgrid="false"
     inkscape:zoom="0.47245261"
     inkscape:cx="244.10688"
     inkscape:cy="249.7605"
     inkscape:window-x="-4"
     inkscape:window-y="-4"
     inkscape:window-maximized="1"
     inkscape:current-layer="Layer_1" /><g
     id="g907"
     transform="translate(-5.6536167,-1.8775425e-4)"><path
       id="path2"
       d="m 455.467,25.721 -182.4,-10.4 c -8.8,-0.8 -16.8,2.4 -23.2,8.8 l -231.2,216.8 c -12,12 -18.4,38.4 -7.2,50.4 l 199.2,199.2 c 12,12 30.4,12 42.4,0 l 231.2,-231.2 c 6.4,-6.4 8.8,-14.4 8.8,-23.2 l -9.6,-186.4 c -0.8,-15.2 -12.8,-23.2 -28,-24 z"
       style="fill:#025dc9"
       inkscape:connector-curvature="0" /><path
       id="path4"
       d="m 455.467,10.521 -182.4,-10.4 c -8.8,-0.8 -16.8,2.4 -23.2,8.8 l -231.2,232 c -12,12 -12,30.4 0,42.4 l 192.8,192.8 c 12,12 30.4,12 42.4,0 l 231.2,-231.2 c 6.4,-6.4 8.8,-14.4 8.8,-23.2 l -10.4,-183.2 c -0.8,-15.2 -12.8,-27.2 -28,-28 z"
       style="fill:#0093f7"
       inkscape:connector-curvature="0" /><path
       id="path6"
       d="m 211.467,475.321 c 12,12 30.4,12 42.4,0 l 231.2,-231.2 c 6.4,-6.4 8.8,-14.4 8.8,-23.2 l -10.4,-182.4 c -0.8,-15.2 -12.8,-27.2 -28,-28 l -182.4,-10.4 c -8.8,-0.8 -16.8,2.4 -23.2,8.8"
       style="fill:#0078db"
       inkscape:connector-curvature="0" /><path
       id="path8"
       d="m 445.067,98.521 c 0,27.2 -22.4,64 -48.8,64 -27.2,0 -48.8,-36.8 -48.8,-64 0,-27.2 22.4,-48.8 48.8,-48.8 26.4,0 48.8,21.6 48.8,48.8 z"
       style="fill:#025dc9"
       inkscape:connector-curvature="0" /><circle
       id="circle10"
       r="48.799999"
       cy="98.521004"
       cx="395.46701"
       style="fill:#ff5b00" /><path
       id="path12"
       d="m 361.067,64.121 c 19.2,-19.2 50.4,-19.2 69.6,0 19.2,19.2 19.2,50.4 0,69.6"
       style="fill:#dd4400"
       inkscape:connector-curvature="0" /><circle
       id="circle14"
       r="28.799999"
       cy="98.521004"
       cx="395.46701"
       style="fill:#ebf0f2" /><path
       id="path16"
       d="m 416.267,77.721 c 11.2,11.2 11.2,29.6 0,41.6 -11.2,11.2 -29.6,11.2 -41.6,0"
       style="fill:#cadfe5"
       inkscape:connector-curvature="0" /><g
       id="g24"><path
         id="path18"
         d="m 113.867,235.321 c -20.8,20.8 -20.8,55.2 0,76 20.8,20.8 55.2,20.8 76,0 20.8,-20.8 20.8,-55.2 0,-76 -21.6,-20.8 -55.2,-20.8 -76,0 z m 56,56 c -9.6,9.6 -25.6,9.6 -36,0 -9.6,-9.6 -9.6,-25.6 0,-36 9.6,-9.6 25.6,-9.6 36,0 9.6,9.6 9.6,25.6 0,36 z"
         style="fill:#025dc9"
         inkscape:connector-curvature="0" /><path
         id="path20"
         d="m 375.467,235.321 c -20.8,-20.8 -55.2,-20.8 -76,0 -20.8,20.8 -20.8,55.2 0,76 20.8,20.8 55.2,20.8 76,0 20.8,-21.6 20.8,-55.2 0,-76 z m -20,56 c -9.6,9.6 -25.6,9.6 -36,0 -9.6,-9.6 -9.6,-25.6 0,-36 9.6,-9.6 25.6,-9.6 36,0 9.6,9.6 9.6,25.6 0,36 z"
         style="fill:#025dc9"
         inkscape:connector-curvature="0" /><path
         id="path22"
         d="m 260.267,127.321 c 0,-0.8 0,-0.8 0,0 -0.8,-1.6 -0.8,-2.4 -0.8,-3.2 v -0.8 c -0.8,-0.8 -1.6,-1.6 -2.4,-1.6 v 0 c -2.4,-3.2 -5.6,-4.8 -9.6,-4.8 -8,0 -13.6,6.4 -13.6,14.4 v 256.8 32.8 c 0,8 5.6,14.4 13.6,14.4 4,0 7.2,-1.6 9.6,-4 2.4,-2.4 4,-6.4 4,-9.6 v -289.6 c 0,-3.2 -0.8,-4 -0.8,-4.8 z"
         style="fill:#025dc9"
         inkscape:connector-curvature="0" /></g><path
       id="path26"
       d="m 177.067,298.521 c -20.8,20.8 -55.2,20.8 -76,0 -20.8,-20.8 -20.8,-55.2 0,-76 20.8,-20.8 55.2,-20.8 76,0 20.8,20.8 20.8,54.4 0,76 z m -56,-56 c -9.6,9.6 -9.6,25.6 0,36 9.6,9.6 25.6,9.6 36,0 9.6,-9.6 9.6,-25.6 0,-36 -10.4,-10.4 -26.4,-10.4 -36,0 z"
       style="fill:#ebf0f2"
       inkscape:connector-curvature="0" /><path
       id="path28"
       d="m 362.667,298.521 c -20.8,20.8 -55.2,20.8 -76,0 -20.8,-20.8 -20.8,-55.2 0,-76 20.8,-20.8 55.2,-20.8 76,0 20.8,20.8 20.8,54.4 0,76 z m -56,-56 c -9.6,9.6 -9.6,25.6 0,36 9.6,9.6 25.6,9.6 36,0 9.6,-9.6 9.6,-25.6 0,-36 -9.6,-9.6 -25.6,-9.6 -36,0 z"
       style="fill:#cadfe5"
       inkscape:connector-curvature="0" /><path
       id="path30"
       d="m 245.067,416.921 c -2.4,2.4 -7.2,4 -11.2,4 -8,0 -15.2,-6.4 -15.2,-14.4 v -288.8 c 0,-8 8,-14.4 16,-14.4 8,0 16,6.4 16,14.4 v 289.6 c -0.8,4 -3.2,7.2 -5.6,9.6 z"
       style="fill:#ebf0f2"
       inkscape:connector-curvature="0" /><path
       id="path32"
       d="m 245.067,416.921 c 2.4,-2.4 4.8,-6.4 4.8,-9.6 v -289.6 c 0,-4.8 -4,-8.8 -8,-11.2 l -24,268 v 32.8 c 0,8 8,14.4 15.2,14.4 4,-0.8 8.8,-2.4 12,-4.8 z"
       style="fill:#cadfe5"
       inkscape:connector-curvature="0" /><g
       id="g34" /><g
       id="g36" /><g
       id="g38" /><g
       id="g40" /><g
       id="g42" /><g
       id="g44" /><g
       id="g46" /><g
       id="g48" /><g
       id="g50" /><g
       id="g52" /><g
       id="g54" /><g
       id="g56" /><g
       id="g58" /><g
       id="g60" /><g
       id="g62" /></g></svg>