<?xml version="1.0" encoding="UTF-8" standalone="no"?>
<!-- Generator: Adobe Illustrator 16.0.0, SVG Export Plug-In . SVG Version: 6.00 Build 0)  -->

<svg
   xmlns:dc="http://purl.org/dc/elements/1.1/"
   xmlns:cc="http://creativecommons.org/ns#"
   xmlns:rdf="http://www.w3.org/1999/02/22-rdf-syntax-ns#"
   xmlns:svg="http://www.w3.org/2000/svg"
   xmlns="http://www.w3.org/2000/svg"
   xmlns:sodipodi="http://sodipodi.sourceforge.net/DTD/sodipodi-0.dtd"
   xmlns:inkscape="http://www.inkscape.org/namespaces/inkscape"
   version="1.1"
   id="Capa_1"
   x="0px"
   y="0px"
   width="474.80099"
   height="401.99899"
   viewBox="0 0 474.80101 401.999"
   xml:space="preserve"
   sodipodi:docname="discount_accept.svg"
   inkscape:version="0.92.2 (5c3e80d, 2017-08-06)"><metadata
     id="metadata45"><rdf:RDF><cc:Work
         rdf:about=""><dc:format>image/svg+xml</dc:format><dc:type
           rdf:resource="http://purl.org/dc/dcmitype/StillImage" /><dc:title /></cc:Work></rdf:RDF></metadata><defs
     id="defs43" /><sodipodi:namedview
     pagecolor="#ffffff"
     bordercolor="#666666"
     borderopacity="1"
     objecttolerance="10"
     gridtolerance="10"
     guidetolerance="10"
     inkscape:pageopacity="0"
     inkscape:pageshadow="2"
     inkscape:window-width="1600"
     inkscape:window-height="837"
     id="namedview41"
     showgrid="false"
     inkscape:zoom="0.49705035"
     inkscape:cx="-108.64141"
     inkscape:cy="200.99951"
     inkscape:window-x="-4"
     inkscape:window-y="-4"
     inkscape:window-maximized="1"
     inkscape:current-layer="Capa_1" /><g
     id="g833"
     transform="translate(0,-36.401)"><path
       inkscape:connector-curvature="0"
       style="fill:#0078db;fill-opacity:1"
       id="path2"
       d="m 396.283,257.097 c -1.14,-0.575 -2.282,-0.862 -3.433,-0.862 -2.478,0 -4.661,0.951 -6.563,2.857 l -18.274,18.271 c -1.708,1.715 -2.566,3.806 -2.566,6.283 v 72.513 c 0,12.565 -4.463,23.314 -13.415,32.264 -8.945,8.945 -19.701,13.418 -32.264,13.418 H 82.226 c -12.564,0 -23.319,-4.473 -32.264,-13.418 -8.947,-8.949 -13.418,-19.698 -13.418,-32.264 V 118.622 c 0,-12.562 4.471,-23.316 13.418,-32.264 8.945,-8.946 19.7,-13.418 32.264,-13.418 H 319.77 c 4.188,0 8.47,0.571 12.847,1.714 1.143,0.378 1.999,0.571 2.563,0.571 2.478,0 4.668,-0.949 6.57,-2.852 l 13.99,-13.99 c 2.282,-2.281 3.142,-5.043 2.566,-8.276 -0.571,-3.046 -2.286,-5.236 -5.141,-6.567 -10.272,-4.752 -21.412,-7.139 -33.403,-7.139 H 82.226 c -22.65,0 -42.018,8.042 -58.102,24.126 C 8.042,76.613 0,95.978 0,118.629 v 237.543 c 0,22.647 8.042,42.014 24.125,58.098 16.084,16.088 35.452,24.13 58.102,24.13 h 237.541 c 22.647,0 42.017,-8.042 58.101,-24.13 16.085,-16.084 24.134,-35.45 24.134,-58.098 v -90.797 c -0.002,-3.994 -1.915,-6.752 -5.72,-8.278 z" /><path
       inkscape:connector-curvature="0"
       style="fill:#61b325;fill-opacity:1"
       id="path4"
       d="M 467.95,93.216 436.541,61.807 c -4.568,-4.567 -9.996,-6.851 -16.279,-6.851 -6.275,0 -11.707,2.284 -16.271,6.851 L 219.265,246.532 144.181,171.443 c -4.569,-4.57 -9.995,-6.851 -16.274,-6.851 -6.28,0 -11.704,2.281 -16.274,6.851 l -31.405,31.405 c -4.568,4.568 -6.854,9.994 -6.854,16.277 0,6.28 2.286,11.704 6.854,16.274 l 122.767,122.767 c 4.569,4.571 9.995,6.851 16.274,6.851 6.279,0 11.704,-2.279 16.274,-6.851 L 467.947,125.763 c 4.565,-4.567 6.854,-9.994 6.854,-16.274 0,-6.28 -2.283,-11.706 -6.851,-16.273 z" /></g><g
     id="g10"
     transform="translate(0,-36.401)" /><g
     id="g12"
     transform="translate(0,-36.401)" /><g
     id="g14"
     transform="translate(0,-36.401)" /><g
     id="g16"
     transform="translate(0,-36.401)" /><g
     id="g18"
     transform="translate(0,-36.401)" /><g
     id="g20"
     transform="translate(0,-36.401)" /><g
     id="g22"
     transform="translate(0,-36.401)" /><g
     id="g24"
     transform="translate(0,-36.401)" /><g
     id="g26"
     transform="translate(0,-36.401)" /><g
     id="g28"
     transform="translate(0,-36.401)" /><g
     id="g30"
     transform="translate(0,-36.401)" /><g
     id="g32"
     transform="translate(0,-36.401)" /><g
     id="g34"
     transform="translate(0,-36.401)" /><g
     id="g36"
     transform="translate(0,-36.401)" /><g
     id="g38"
     transform="translate(0,-36.401)" /></svg>