<?xml version="1.0" encoding="UTF-8" standalone="no"?>
<!-- Generator: Adobe Illustrator 19.0.0, SVG Export Plug-In . SVG Version: 6.00 Build 0)  -->

<svg
   xmlns:dc="http://purl.org/dc/elements/1.1/"
   xmlns:cc="http://creativecommons.org/ns#"
   xmlns:rdf="http://www.w3.org/1999/02/22-rdf-syntax-ns#"
   xmlns:svg="http://www.w3.org/2000/svg"
   xmlns="http://www.w3.org/2000/svg"
   xmlns:sodipodi="http://sodipodi.sourceforge.net/DTD/sodipodi-0.dtd"
   xmlns:inkscape="http://www.inkscape.org/namespaces/inkscape"
   version="1.1"
   id="Layer_1"
   x="0px"
   y="0px"
   viewBox="0 0 293.20999 297"
   xml:space="preserve"
   sodipodi:docname="login.svg"
   width="293.20999"
   height="297"
   inkscape:version="0.92.2 (5c3e80d, 2017-08-06)"><metadata
     id="metadata50"><rdf:RDF><cc:Work
         rdf:about=""><dc:format>image/svg+xml</dc:format><dc:type
           rdf:resource="http://purl.org/dc/dcmitype/StillImage" /></cc:Work></rdf:RDF></metadata><defs
     id="defs48" /><sodipodi:namedview
     pagecolor="#ffffff"
     bordercolor="#666666"
     borderopacity="1"
     objecttolerance="10"
     gridtolerance="10"
     guidetolerance="10"
     inkscape:pageopacity="0"
     inkscape:pageshadow="2"
     inkscape:window-width="1600"
     inkscape:window-height="837"
     id="namedview46"
     showgrid="false"
     inkscape:zoom="0.79461279"
     inkscape:cx="146.605"
     inkscape:cy="148.5"
     inkscape:window-x="-4"
     inkscape:window-y="-4"
     inkscape:window-maximized="1"
     inkscape:current-layer="Layer_1" /><g
     id="g13"
     transform="translate(-1.895)"><g
       id="XMLID_40_"><g
         id="g10"><path
           style="fill:#2ecc71"
           d="m 154.515,107.67 27.22,40.83 -27.22,40.83 h -20.63 l 12.02,-18.04 c 2.12,-3.17 2.31,-7.25 0.52,-10.61 -1.8,-3.36 -5.31,-5.46 -9.12,-5.46 H 29.285 c -3.7,0 -6.72,-3.02 -6.72,-6.72 0,-3.7 3.02,-6.72 6.72,-6.72 h 108.02 c 3.81,0 7.32,-2.1 9.12,-5.46 1.79,-3.36 1.6,-7.44 -0.52,-10.61 l -12.02,-18.04 c 0,0 20.63,0 20.63,0 z"
           id="path2"
           inkscape:connector-curvature="0" /><path
           style="fill:#16a085"
           d="m 146.605,20.67 c 70.48,0 127.82,57.35 127.82,127.83 0,70.48 -57.34,127.83 -127.82,127.83 -23.93,0 -46.91,-6.53 -67.03,-18.97 l 12.58,-20.41 c 15.29,8.75 32.5,13.32 50.37,13.32 56.11,0 101.77,-45.65 101.77,-101.77 0,-56.12 -45.66,-101.77 -101.77,-101.77 -17.87,0 -35.08,4.57 -50.37,13.32 L 79.575,39.64 c 20.12,-12.44 43.1,-18.97 67.03,-18.97 z"
           id="path4"
           inkscape:connector-curvature="0" /><path
           d="m 146.605,0 c 81.88,0 148.5,66.62 148.5,148.5 0,81.88 -66.62,148.5 -148.5,148.5 -31.53,0 -61.65,-9.76 -87.11,-28.23 -4.38,-3.18 -5.57,-9.19 -2.73,-13.79 l 23.33,-37.85 c 1.5,-2.45 3.97,-4.16 6.79,-4.72 2.82,-0.55 5.75,0.09 8.08,1.78 13.89,10.08 30.34,15.41 47.56,15.41 44.71,0 81.09,-36.38 81.09,-81.1 0,-44.72 -36.38,-81.1 -81.09,-81.1 -17.22,0 -33.67,5.33 -47.56,15.41 -2.33,1.69 -5.26,2.33 -8.08,1.78 -2.82,-0.56 -5.29,-2.27 -6.79,-4.72 L 56.765,42.02 c -2.84,-4.6 -1.65,-10.61 2.73,-13.79 C 84.955,9.76 115.075,0 146.605,0 Z m 127.82,148.5 c 0,-70.48 -57.34,-127.83 -127.82,-127.83 -23.93,0 -46.91,6.53 -67.03,18.97 l 12.58,20.41 c 15.29,-8.75 32.5,-13.32 50.37,-13.32 56.11,0 101.77,45.65 101.77,101.77 0,56.12 -45.66,101.77 -101.77,101.77 -17.87,0 -35.08,-4.57 -50.37,-13.32 l -12.58,20.41 c 20.12,12.44 43.1,18.97 67.03,18.97 70.48,0 127.82,-57.35 127.82,-127.83 z"
           id="path6"
           inkscape:connector-curvature="0" /><path
           d="m 202.755,142.77 c 2.32,3.47 2.32,7.99 0,11.46 l -34.11,51.17 c -1.91,2.88 -5.14,4.6 -8.6,4.6 h -45.48 c -3.81,0 -7.31,-2.09 -9.11,-5.46 -1.8,-3.36 -1.6,-7.43 0.51,-10.61 l 12.03,-18.04 h -88.71 c -15.1,0 -27.39,-12.29 -27.39,-27.39 0,-15.1 12.29,-27.39 27.39,-27.39 h 88.71 l -12.03,-18.04 c -2.11,-3.18 -2.31,-7.25 -0.51,-10.61 1.8,-3.37 5.3,-5.46 9.11,-5.46 h 45.48 c 3.46,0 6.69,1.72 8.6,4.6 z m -21.02,5.73 -27.22,-40.83 h -20.63 l 12.02,18.04 c 2.12,3.17 2.31,7.25 0.52,10.61 -1.8,3.36 -5.31,5.46 -9.12,5.46 H 29.285 c -3.7,0 -6.72,3.02 -6.72,6.72 0,3.7 3.02,6.72 6.72,6.72 h 108.02 c 3.81,0 7.32,2.1 9.12,5.46 1.79,3.36 1.6,7.44 -0.52,10.61 l -12.02,18.04 h 20.63 z"
           id="path8"
           inkscape:connector-curvature="0" /></g></g></g><g
     id="g15"
     transform="translate(-1.895)" /><g
     id="g17"
     transform="translate(-1.895)" /><g
     id="g19"
     transform="translate(-1.895)" /><g
     id="g21"
     transform="translate(-1.895)" /><g
     id="g23"
     transform="translate(-1.895)" /><g
     id="g25"
     transform="translate(-1.895)" /><g
     id="g27"
     transform="translate(-1.895)" /><g
     id="g29"
     transform="translate(-1.895)" /><g
     id="g31"
     transform="translate(-1.895)" /><g
     id="g33"
     transform="translate(-1.895)" /><g
     id="g35"
     transform="translate(-1.895)" /><g
     id="g37"
     transform="translate(-1.895)" /><g
     id="g39"
     transform="translate(-1.895)" /><g
     id="g41"
     transform="translate(-1.895)" /><g
     id="g43"
     transform="translate(-1.895)" /></svg>