<?xml version="1.0" encoding="UTF-8" standalone="no"?>
<svg
   xmlns:dc="http://purl.org/dc/elements/1.1/"
   xmlns:cc="http://creativecommons.org/ns#"
   xmlns:rdf="http://www.w3.org/1999/02/22-rdf-syntax-ns#"
   xmlns:svg="http://www.w3.org/2000/svg"
   xmlns="http://www.w3.org/2000/svg"
   xmlns:sodipodi="http://sodipodi.sourceforge.net/DTD/sodipodi-0.dtd"
   xmlns:inkscape="http://www.inkscape.org/namespaces/inkscape"
   version="1.1"
   x="0px"
   y="0px"
   viewBox="0 0 1000 1000"
   enable-background="new 0 0 1000 1000"
   xml:space="preserve"
   id="svg28"
   sodipodi:docname="remove-order.svg"
   inkscape:version="0.92.2 (5c3e80d, 2017-08-06)"><metadata
     id="metadata34"><rdf:RDF><cc:Work
         rdf:about=""><dc:format>image/svg+xml</dc:format><dc:type
           rdf:resource="http://purl.org/dc/dcmitype/StillImage" /><dc:title></dc:title></cc:Work></rdf:RDF></metadata><defs
     id="defs32" /><sodipodi:namedview
     pagecolor="#ffffff"
     bordercolor="#666666"
     borderopacity="1"
     objecttolerance="10"
     gridtolerance="10"
     guidetolerance="10"
     inkscape:pageopacity="0"
     inkscape:pageshadow="2"
     inkscape:window-width="1600"
     inkscape:window-height="837"
     id="namedview30"
     showgrid="false"
     inkscape:zoom="0.236"
     inkscape:cx="-963.98305"
     inkscape:cy="500"
     inkscape:window-x="-4"
     inkscape:window-y="-4"
     inkscape:window-maximized="1"
     inkscape:current-layer="svg28" /><path
     inkscape:connector-curvature="0"
     id="path2"
     d="M 741.8,990 H 258.2 C 197.8,990 148.7,940.9 148.7,880.5 v -761 C 148.7,59.1 197.8,10 258.2,10 h 483.7 c 60.4,0 109.5,49.1 109.5,109.5 v 761 C 851.3,940.9 802.2,990 741.8,990 Z M 258.2,42.4 c -42.5,0 -77.1,34.6 -77.1,77.1 v 761 c 0,42.5 34.6,77.1 77.1,77.1 h 483.7 c 42.5,0 77.1,-34.6 77.1,-77.1 v -761 C 819,77 784.4,42.4 741.9,42.4 Z"
     style="fill:#008bff;fill-opacity:1" /><path
     inkscape:connector-curvature="0"
     id="path4"
     d="m 169.1,224.7 h 665.4 v 31.9 H 169.1 Z"
     style="fill:#008bff;fill-opacity:1" /><path
     inkscape:connector-curvature="0"
     id="path6"
     d="m 250.2,337.8 h 485.6 v 31.9 H 250.2 Z"
     style="fill:#008bff;fill-opacity:1" /><path
     inkscape:connector-curvature="0"
     id="path8"
     d="m 250.2,403 h 485.6 v 31.9 H 250.2 Z"
     style="fill:#008bff;fill-opacity:1" /><path
     inkscape:connector-curvature="0"
     id="path10"
     d="m 250.2,466.8 h 485.6 v 33.3 H 250.2 Z"
     style="fill:#008bff;fill-opacity:1" /><path
     inkscape:connector-curvature="0"
     id="path12"
     d="m 250.2,532 h 485.6 v 31.9 H 250.2 Z"
     style="fill:#008bff;fill-opacity:1" /><path
     inkscape:connector-curvature="0"
     id="path14"
     d="m 250.2,597.3 h 485.6 v 31.9 H 250.2 Z"
     style="fill:#008bff;fill-opacity:1" /><path
     inkscape:connector-curvature="0"
     id="path16"
     d="m 250.2,661 h 485.6 v 33.3 H 250.2 Z"
     style="fill:#008bff;fill-opacity:1" /><path
     inkscape:connector-curvature="0"
     id="path18"
     d="m 250.2,726.3 h 485.6 v 33.3 H 250.2 Z"
     style="fill:#008bff;fill-opacity:1" /><path
     inkscape:connector-curvature="0"
     id="path20"
     d="m 250.2,791.5 h 485.6 v 31.9 H 250.2 Z"
     style="fill:#008bff;fill-opacity:1" /><path
     inkscape:connector-curvature="0"
     id="path22"
     d="m 250.2,856.7 h 485.6 v 31.9 H 250.2 Z"
     style="fill:#008bff;fill-opacity:1" /><path
     inkscape:connector-curvature="0"
     id="path24"
     d="M 593.8,175.9 H 404.1 c -23.6,0 -42.9,-19.2 -42.9,-42.9 0,-23.6 19.2,-42.9 42.9,-42.9 h 189.7 c 23.7,0 42.9,19.2 42.9,42.9 0,23.7 -19.2,42.9 -42.9,42.9 z M 404.1,122.5 c -5.7,0 -10.5,4.8 -10.5,10.5 0,5.7 4.8,10.5 10.5,10.5 h 189.7 c 5.7,0 10.5,-4.8 10.5,-10.5 0,-5.7 -4.8,-10.5 -10.5,-10.5 z"
     style="fill:#008bff;fill-opacity:1" /><polygon
     style="fill:#e21b1b"
     points="404.176,512 512,404.176 363.824,256 512,107.824 404.176,0 256,148.176 107.824,0 0,107.824 148.176,256 0,404.176 107.824,512 256,363.824 "
     id="polygon2"
     transform="matrix(1.3806939,0,0,1.3806939,142.376,136.40508)" /></svg>