<?xml version="1.0" encoding="UTF-8" standalone="no"?>
<!-- Created with Inkscape (http://www.inkscape.org/) -->

<svg
   xmlns:dc="http://purl.org/dc/elements/1.1/"
   xmlns:cc="http://creativecommons.org/ns#"
   xmlns:rdf="http://www.w3.org/1999/02/22-rdf-syntax-ns#"
   xmlns:svg="http://www.w3.org/2000/svg"
   xmlns="http://www.w3.org/2000/svg"
   xmlns:sodipodi="http://sodipodi.sourceforge.net/DTD/sodipodi-0.dtd"
   xmlns:inkscape="http://www.inkscape.org/namespaces/inkscape"
   version="1.0"
   width="491.07562"
   height="637.59387"
   id="svg2440"
   sodipodi:docname="Rouble_official_sign.svg"
   inkscape:version="0.92.2 (5c3e80d, 2017-08-06)">
  <metadata
     id="metadata7">
    <rdf:RDF>
      <cc:Work
         rdf:about="">
        <dc:format>image/svg+xml</dc:format>
        <dc:type
           rdf:resource="http://purl.org/dc/dcmitype/StillImage" />
      </cc:Work>
    </rdf:RDF>
  </metadata>
  <sodipodi:namedview
     pagecolor="#ffffff"
     bordercolor="#666666"
     borderopacity="1"
     objecttolerance="10"
     gridtolerance="10"
     guidetolerance="10"
     inkscape:pageopacity="0"
     inkscape:pageshadow="2"
     inkscape:window-width="1600"
     inkscape:window-height="837"
     id="namedview5"
     showgrid="false"
     inkscape:zoom="0.37048666"
     inkscape:cx="246"
     inkscape:cy="319"
     inkscape:window-x="-4"
     inkscape:window-y="-4"
     inkscape:window-maximized="1"
     inkscape:current-layer="svg2440" />
  <defs
     id="defs2443" />
  <path
     d="m 3.4163698,635.42102 c -2.2234203,-2.20713 -2.331884,-13.50152 -0.1504594,-15.66696 1.1807788,-1.17213 6.31318,-1.65769 22.2525406,-2.10523 18.706859,-0.52523 21.496899,-0.85182 28.74475,-3.36469 11.29969,-3.91767 18.588883,-8.57968 25.858396,-16.5385 12.100653,-13.24806 12.807802,-18.80012 13.530157,-106.23031 l 0.556324,-67.33342 h -45.08945 c -39.5605354,0 -45.2961038,-0.20513 -46.7746698,-1.67288 -2.45861093,-2.44061 -2.45861093,-26.15043 0,-28.59104 1.4784266,-1.4676 7.202799,-1.67288 46.6499058,-1.67288 H 93.958549 V 372.55075 352.8564 H 48.993864 c -39.4471068,0 -45.1714792,-0.20528 -46.6499058,-1.67289 -2.45861093,-2.44061 -2.45861093,-26.15042 0,-28.59103 1.4784266,-1.4676 7.202799,-1.67288 46.6499058,-1.67288 H 93.958549 L 93.937969,215.7943 C 93.912779,87.12978 92.966697,66.454387 86.294238,48.751225 82.277241,38.09344 69.827808,28.223672 54.279319,23.370163 49.884362,21.998265 42.698968,21.357271 26.087237,20.855209 7.9608641,20.307371 3.6037415,19.882915 2.7787031,18.584577 1.0509086,15.86558 1.5095254,4.0528173 3.4163698,2.1599382 4.9303683,0.6570254 18.577439,0.48843104 137.73592,0.50057447 283.58762,0.51543897 291.13269,0.7715646 326.28943,6.9012263 370.09814,14.539379 403.4918,28.720646 430.15959,51.0117 c 14.40758,12.043002 29.95698,29.784843 38.29006,43.688911 9.22879,15.398579 12.2233,22.968169 17.40888,44.006599 7.69673,31.22646 5.91617,67.4165 -4.9319,100.24127 -3.26626,9.8833 -12.73502,29.04044 -18.78438,38.00447 -28.3514,42.01158 -74.5548,66.88394 -138.15141,74.3701 -9.74182,1.14674 -28.1788,1.51709 -75.87312,1.52409 l -63.00418,0.009 v 19.69435 19.69436 h 137.19208 c 123.2902,0 137.36286,0.16952 138.87731,1.67288 2.45861,2.44061 2.45861,26.15043 0,28.59104 -1.51445,1.50336 -15.58711,1.67288 -138.87731,1.67288 H 185.11354 l 0.0166,54.5587 c 0.0217,71.39141 1.51557,92.94337 7.54496,108.85125 2.98718,7.88133 12.99456,18.14222 22.18423,22.74619 11.70272,5.86299 16.30704,6.72199 39.21829,7.31677 16.50991,0.42861 21.58638,0.89353 22.78875,2.0871 2.1931,2.17705 2.0936,13.46361 -0.13823,15.6791 -1.51417,1.50334 -15.38517,1.67314 -136.65589,1.67314 -121.27072,0 -135.1417208,-0.1698 -136.6558802,-1.67288 z M 283.77541,318.86062 c 22.93566,-4.15475 44.28726,-16.16802 62.6543,-35.25184 17.90642,-18.6052 28.90833,-41.09724 33.30875,-68.09554 2.33649,-14.33527 2.38225,-45.74619 0.0915,-62.79411 -8.0956,-60.247569 -40.96477,-97.613752 -95.96952,-109.099644 -12.65977,-2.643566 -35.02663,-3.807691 -50.58152,-2.63261 -13.60894,1.028075 -39.88967,5.293866 -45.37958,7.365845 l -2.78578,1.051396 V 185.27337 321.14262 l 45.84559,-0.50963 c 28.43259,-0.31607 48.49319,-0.98925 52.81628,-1.77237 z"
     id="path2467"
     style="fill:#000000;stroke:#000000;stroke-opacity:1"
     inkscape:connector-curvature="0" />
</svg>
