<?xml version="1.0" encoding="UTF-8" standalone="no"?>
<!-- Generator: Adobe Illustrator 18.0.0, SVG Export Plug-In . SVG Version: 6.00 Build 0)  -->

<svg
   xmlns:dc="http://purl.org/dc/elements/1.1/"
   xmlns:cc="http://creativecommons.org/ns#"
   xmlns:rdf="http://www.w3.org/1999/02/22-rdf-syntax-ns#"
   xmlns:svg="http://www.w3.org/2000/svg"
   xmlns="http://www.w3.org/2000/svg"
   xmlns:sodipodi="http://sodipodi.sourceforge.net/DTD/sodipodi-0.dtd"
   xmlns:inkscape="http://www.inkscape.org/namespaces/inkscape"
   version="1.1"
   id="Capa_1"
   x="0px"
   y="0px"
   viewBox="0 0 303.32871 352.667"
   xml:space="preserve"
   sodipodi:docname="specialist-user.svg"
   inkscape:version="0.92.2 (5c3e80d, 2017-08-06)"
   width="303.3287"
   height="352.66699"><metadata
     id="metadata43"><rdf:RDF><cc:Work
         rdf:about=""><dc:format>image/svg+xml</dc:format><dc:type
           rdf:resource="http://purl.org/dc/dcmitype/StillImage" /></cc:Work></rdf:RDF></metadata><defs
     id="defs41" /><sodipodi:namedview
     pagecolor="#ffffff"
     bordercolor="#666666"
     borderopacity="1"
     objecttolerance="10"
     gridtolerance="10"
     guidetolerance="10"
     inkscape:pageopacity="0"
     inkscape:pageshadow="2"
     inkscape:window-width="1600"
     inkscape:window-height="837"
     id="namedview39"
     showgrid="false"
     inkscape:zoom="0.67492788"
     inkscape:cx="-362.46465"
     inkscape:cy="176.33351"
     inkscape:window-x="-4"
     inkscape:window-y="-4"
     inkscape:window-maximized="1"
     inkscape:current-layer="Capa_1" /><g
     id="g842"
     style="fill:#007e00;fill-opacity:1;stroke:#1c1ef0;stroke-width:3;stroke-miterlimit:4;stroke-dasharray:none;stroke-opacity:1"
     transform="translate(-23.169151,1.5)"><path
       style="fill:#007e00;fill-opacity:1;stroke:#1c1ef0;stroke-width:3;stroke-miterlimit:4;stroke-dasharray:none;stroke-opacity:1"
       d="m 174.833,197.204 c 24.125,0 80.846,-29.034 80.846,-98.603 C 255.68,44.145 248.329,0 174.833,0 101.338,0 93.987,44.145 93.987,98.602 c 0,69.568 56.721,98.602 80.846,98.602 z M 106.07,82.146 c 5.679,-10.983 17.963,-23.675 44.381,-23.112 0,0 15.746,38.194 93.05,21.042 0.312,6.101 0.41,12.326 0.41,18.526 0,34.005 -15.015,55.075 -27.612,66.762 -15.872,14.727 -33.494,20.072 -41.466,20.072 -7.972,0 -25.594,-5.345 -41.466,-20.072 -12.597,-11.687 -27.612,-32.757 -27.612,-66.762 0.001,-5.501 0.081,-11.021 0.315,-16.456 z"
       id="path2"
       inkscape:connector-curvature="0" /><path
       style="fill:#007e00;fill-opacity:1;stroke:#1c1ef0;stroke-width:3;stroke-miterlimit:4;stroke-dasharray:none;stroke-opacity:1"
       d="m 324.926,298.327 c -4.127,-25.665 -12.625,-58.724 -29.668,-70.472 -11.638,-8.024 -52.243,-29.718 -69.582,-38.982 l -0.3,-0.16 c -1.982,-1.059 -4.402,-0.847 -6.17,0.541 -9.083,7.131 -19.033,11.937 -29.573,14.284 -1.862,0.415 -3.39,1.738 -4.067,3.521 L 174.833,235.35 164.1,207.059 c -0.677,-1.783 -2.205,-3.106 -4.067,-3.521 -10.54,-2.347 -20.49,-7.153 -29.573,-14.284 -1.768,-1.388 -4.188,-1.601 -6.17,-0.541 -17.133,9.155 -58.235,31.291 -69.831,39.107 -19.619,13.217 -28.198,61.052 -29.718,70.507 -0.151,0.938 -0.063,1.897 0.253,2.792 0.702,1.982 18.708,48.548 149.839,48.548 131.131,0 149.137,-46.566 149.839,-48.548 0.317,-0.895 0.405,-1.855 0.254,-2.792 z m -60.426,-15.661 -25.667,8 -25.667,-8 v -13.81 H 264.5 Z"
       id="path4"
       inkscape:connector-curvature="0" /></g><g
     id="g8"
     transform="translate(-23.169151,1.5)" /><g
     id="g10"
     transform="translate(-23.169151,1.5)" /><g
     id="g12"
     transform="translate(-23.169151,1.5)" /><g
     id="g14"
     transform="translate(-23.169151,1.5)" /><g
     id="g16"
     transform="translate(-23.169151,1.5)" /><g
     id="g18"
     transform="translate(-23.169151,1.5)" /><g
     id="g20"
     transform="translate(-23.169151,1.5)" /><g
     id="g22"
     transform="translate(-23.169151,1.5)" /><g
     id="g24"
     transform="translate(-23.169151,1.5)" /><g
     id="g26"
     transform="translate(-23.169151,1.5)" /><g
     id="g28"
     transform="translate(-23.169151,1.5)" /><g
     id="g30"
     transform="translate(-23.169151,1.5)" /><g
     id="g32"
     transform="translate(-23.169151,1.5)" /><g
     id="g34"
     transform="translate(-23.169151,1.5)" /><g
     id="g36"
     transform="translate(-23.169151,1.5)" /></svg>