<?xml version="1.0" encoding="utf-8"?>
<!DOCTYPE svg PUBLIC "-//W3C//DTD SVG 20010904//EN" "http://www.w3.org/TR/2001/REC-SVG-20010904/DTD/svg10.dtd">
<svg xmlns="http://www.w3.org/2000/svg" xml:space="preserve" xmlns:xlink="http://www.w3.org/1999/xlink" width="305" height="124.539" viewBox="0 0 305 124.539">
<desc></desc>
<rect x="0" y="0" width="305" height="124.539" style="fill:#ffffff;" />
<line fill="none" style="stroke:#000000; stroke-width:3;" x1="21.5" y1="0" x2="21.5" y2="98"/>
<line fill="none" style="stroke:#000000; stroke-width:3;" x1="27.5" y1="0" x2="27.5" y2="98"/>
<line fill="none" style="stroke:#000000; stroke-width:3;" x1="33.5" y1="0" x2="33.5" y2="90"/>
<line fill="none" style="stroke:#000000; stroke-width:12;" x1="44" y1="0" x2="44" y2="90"/>
<line fill="none" style="stroke:#000000; stroke-width:3;" x1="54.5" y1="0" x2="54.5" y2="90"/>
<line fill="none" style="stroke:#000000; stroke-width:3;" x1="69.5" y1="0" x2="69.5" y2="90"/>
<line fill="none" style="stroke:#000000; stroke-width:6;" x1="77" y1="0" x2="77" y2="90"/>
<line fill="none" style="stroke:#000000; stroke-width:9;" x1="87.5" y1="0" x2="87.5" y2="90"/>
<line fill="none" style="stroke:#000000; stroke-width:3;" x1="99.5" y1="0" x2="99.5" y2="90"/>
<line fill="none" style="stroke:#000000; stroke-width:9;" x1="108.5" y1="0" x2="108.5" y2="90"/>
<line fill="none" style="stroke:#000000; stroke-width:6;" x1="125" y1="0" x2="125" y2="90"/>
<line fill="none" style="stroke:#000000; stroke-width:3;" x1="132.5" y1="0" x2="132.5" y2="90"/>
<line fill="none" style="stroke:#000000; stroke-width:3;" x1="138.5" y1="0" x2="138.5" y2="90"/>
<line fill="none" style="stroke:#000000; stroke-width:9;" x1="150.5" y1="0" x2="150.5" y2="90"/>
<line fill="none" style="stroke:#000000; stroke-width:3;" x1="159.5" y1="0" x2="159.5" y2="98"/>
<line fill="none" style="stroke:#000000; stroke-width:3;" x1="165.5" y1="0" x2="165.5" y2="98"/>
<line fill="none" style="stroke:#000000; stroke-width:3;" x1="171.5" y1="0" x2="171.5" y2="90"/>
<line fill="none" style="stroke:#000000; stroke-width:9;" x1="180.5" y1="0" x2="180.5" y2="90"/>
<line fill="none" style="stroke:#000000; stroke-width:6;" x1="194" y1="0" x2="194" y2="90"/>
<line fill="none" style="stroke:#000000; stroke-width:6;" x1="206" y1="0" x2="206" y2="90"/>
<line fill="none" style="stroke:#000000; stroke-width:6;" x1="215" y1="0" x2="215" y2="90"/>
<line fill="none" style="stroke:#000000; stroke-width:6;" x1="227" y1="0" x2="227" y2="90"/>
<line fill="none" style="stroke:#000000; stroke-width:3;" x1="234.5" y1="0" x2="234.5" y2="90"/>
<line fill="none" style="stroke:#000000; stroke-width:9;" x1="243.5" y1="0" x2="243.5" y2="90"/>
<line fill="none" style="stroke:#000000; stroke-width:6;" x1="257" y1="0" x2="257" y2="90"/>
<line fill="none" style="stroke:#000000; stroke-width:6;" x1="269" y1="0" x2="269" y2="90"/>
<line fill="none" style="stroke:#000000; stroke-width:3;" x1="276.5" y1="0" x2="276.5" y2="90"/>
<line fill="none" style="stroke:#000000; stroke-width:3;" x1="282.5" y1="0" x2="282.5" y2="90"/>
<line fill="none" style="stroke:#000000; stroke-width:3;" x1="297.5" y1="0" x2="297.5" y2="98"/>
<line fill="none" style="stroke:#000000; stroke-width:3;" x1="303.5" y1="0" x2="303.5" y2="98"/>
<text x="10" y="117.632" text-anchor="middle" style="font-family: Tahoma; font-size: 32px; stroke: none; fill:#000000;">7</text>
<text x="91.25" y="117.632" text-anchor="middle" style="font-family: Tahoma; font-size: 32px; stroke: none; fill:#000000;">638900</text>
<text x="233.75" y="117.632" text-anchor="middle" style="font-family: Tahoma; font-size: 32px; stroke: none; fill:#000000;">411416</text>
</svg>